<?xml version="1.0" standalone="no"?>
<svg viewBox="0 0 200 200" xmlns="http://www.w3.org/2000/svg">
  <path fill="#8A3FFC" d="M42.2,-69.1C50.8,-60.1,51.3,-41.9,53,-27.4C54.8,-12.8,57.8,-2,58.2,9.7C58.5,21.4,56.1,34,48.3,40.4C40.5,46.9,27.2,47.2,14.3,53C1.4,58.7,-11.2,69.9,-22.1,69.4C-33,68.8,-42.1,56.6,-49.3,44.7C-56.6,32.8,-61.8,21.2,-65,8.5C-68.2,-4.3,-69.2,-18.2,-66,-32.1C-62.7,-46.1,-55.1,-60,-43.4,-67.6C-31.7,-75.2,-15.8,-76.4,0.5,-77.1C16.8,-77.9,33.6,-78.1,42.2,-69.1Z" transform="translate(100 100)" />
</svg>
